<svg width="30" height="30" viewBox="0 0 45 45" fill="none" xmlns="http://www.w3.org/2000/svg">
<path d="M15 22.5L15 15C15 10.8579 18.3579 7.5 22.5 7.5V7.5C26.6421 7.5 30 10.8579 30 15L30 22.5" stroke="#753D6D" stroke-linecap="round"/>
<path d="M7.19435 20.5428C7.33942 18.8019 7.41196 17.9315 7.98605 17.4032C8.56013 16.875 9.4336 16.875 11.1805 16.875H33.8195C35.5664 16.875 36.4399 16.875 37.014 17.4032C37.588 17.9315 37.6606 18.8019 37.8057 20.5428L39.1945 37.2089C39.279 38.2224 39.3212 38.7292 39.0241 39.0521C38.727 39.375 38.2185 39.375 37.2014 39.375H7.7986C6.78155 39.375 6.27302 39.375 5.97592 39.0521C5.67882 38.7292 5.72105 38.2224 5.80551 37.2089L7.19435 20.5428Z" stroke="#753D6D"/>
</svg>
