<svg width="42" height="42" viewBox="0 0 42 42" fill="none" xmlns="http://www.w3.org/2000/svg">
<path d="M19.3031 14.8219C18.7905 14.3094 17.9595 14.3094 17.4469 14.8219C16.9344 15.3345 16.9344 16.1655 17.4469 16.6781L20.4563 19.6875L17.4469 22.6969C16.9344 23.2095 16.9344 24.0405 17.4469 24.5531C17.9595 25.0656 18.7905 25.0656 19.3031 24.5531L22.3125 21.5437L25.3219 24.5531C25.8345 25.0656 26.6655 25.0656 27.1781 24.5531C27.6906 24.0405 27.6906 23.2095 27.1781 22.6969L24.1687 19.6875L27.1781 16.6781C27.6906 16.1655 27.6906 15.3345 27.1781 14.8219C26.6655 14.3094 25.8345 14.3094 25.3219 14.8219L22.3125 17.8313L19.3031 14.8219Z" fill="#753D6D"/>
<path d="M1.3125 2.625C0.587626 2.625 0 3.21263 0 3.9375C0 4.66237 0.587626 5.25 1.3125 5.25H4.22523L5.27969 9.46785L9.20998 30.4294C9.32638 31.0502 9.86841 31.5 10.5 31.5H13.125C10.2255 31.5 7.875 33.8505 7.875 36.75C7.875 39.6495 10.2255 42 13.125 42C16.0245 42 18.375 39.6495 18.375 36.75C18.375 33.8505 16.0245 31.5 13.125 31.5H31.5C28.6005 31.5 26.25 33.8505 26.25 36.75C26.25 39.6495 28.6005 42 31.5 42C34.3995 42 36.75 39.6495 36.75 36.75C36.75 33.8505 34.3995 31.5 31.5 31.5H34.125C34.7566 31.5 35.2986 31.0502 35.415 30.4294L39.3525 9.42938C39.4245 9.04562 39.3218 8.64974 39.0725 8.34929C38.8231 8.04884 38.4529 7.875 38.0625 7.875H7.58727L6.52331 3.61917C6.37724 3.03489 5.85226 2.625 5.25 2.625H1.3125ZM11.5893 28.875L8.14397 10.5H36.481L33.0357 28.875H11.5893ZM15.75 36.75C15.75 38.1997 14.5747 39.375 13.125 39.375C11.6753 39.375 10.5 38.1997 10.5 36.75C10.5 35.3003 11.6753 34.125 13.125 34.125C14.5747 34.125 15.75 35.3003 15.75 36.75ZM34.125 36.75C34.125 38.1997 32.9497 39.375 31.5 39.375C30.0503 39.375 28.875 38.1997 28.875 36.75C28.875 35.3003 30.0503 34.125 31.5 34.125C32.9497 34.125 34.125 35.3003 34.125 36.75Z" fill="#753D6D"/>
</svg>
