<svg width="45" height="46" viewBox="0 0 45 46" fill="none" xmlns="http://www.w3.org/2000/svg">
<g filter="url(#filter0_d_208_27)">
<path d="M34.6875 13.125C34.6875 15.9375 29.0625 17.8125 22.5 17.8125C15.9375 17.8125 10.3125 15.9375 10.3125 13.125C10.3125 10.3125 15.9375 8.4375 22.5 8.4375C29.0625 8.4375 34.6875 10.3125 34.6875 13.125Z" stroke="#753D6D" stroke-linecap="round" shape-rendering="crispEdges"/>
</g>
<g filter="url(#filter1_d_208_27)">
<path d="M10.3125 13.125L13.7121 32.6724C13.8536 33.4862 13.9243 33.893 14.1291 34.2229C14.2383 34.3988 14.3742 34.5567 14.5319 34.6909C14.8275 34.9425 15.2193 35.0731 16.0029 35.3343V35.3343C18.6778 36.2259 20.0153 36.6718 21.3902 36.7995C22.1285 36.868 22.8715 36.868 23.6098 36.7995C24.9847 36.6718 26.3222 36.2259 28.9971 35.3343V35.3343C29.7807 35.0731 30.1725 34.9425 30.4681 34.6909C30.6258 34.5567 30.7617 34.3988 30.8709 34.2229C31.0757 33.893 31.1464 33.4862 31.2879 32.6724L34.6875 13.125" stroke="#753D6D" stroke-linecap="round"/>
</g>
<defs>
<filter id="filter0_d_208_27" x="5.8125" y="7.9375" width="33.375" height="18.375" filterUnits="userSpaceOnUse" color-interpolation-filters="sRGB">
<feFlood flood-opacity="0" result="BackgroundImageFix"/>
<feColorMatrix in="SourceAlpha" type="matrix" values="0 0 0 0 0 0 0 0 0 0 0 0 0 0 0 0 0 0 127 0" result="hardAlpha"/>
<feOffset dy="4"/>
<feGaussianBlur stdDeviation="2"/>
<feComposite in2="hardAlpha" operator="out"/>
<feColorMatrix type="matrix" values="0 0 0 0 0 0 0 0 0 0 0 0 0 0 0 0 0 0 0.25 0"/>
<feBlend mode="normal" in2="BackgroundImageFix" result="effect1_dropShadow_208_27"/>
<feBlend mode="normal" in="SourceGraphic" in2="effect1_dropShadow_208_27" result="shape"/>
</filter>
<filter id="filter1_d_208_27" x="5.8125" y="12.6249" width="33.375" height="32.726" filterUnits="userSpaceOnUse" color-interpolation-filters="sRGB">
<feFlood flood-opacity="0" result="BackgroundImageFix"/>
<feColorMatrix in="SourceAlpha" type="matrix" values="0 0 0 0 0 0 0 0 0 0 0 0 0 0 0 0 0 0 127 0" result="hardAlpha"/>
<feOffset dy="4"/>
<feGaussianBlur stdDeviation="2"/>
<feComposite in2="hardAlpha" operator="out"/>
<feColorMatrix type="matrix" values="0 0 0 0 0 0 0 0 0 0 0 0 0 0 0 0 0 0 0.25 0"/>
<feBlend mode="normal" in2="BackgroundImageFix" result="effect1_dropShadow_208_27"/>
<feBlend mode="normal" in="SourceGraphic" in2="effect1_dropShadow_208_27" result="shape"/>
</filter>
</defs>
</svg>
