<svg width="35" height="35" viewBox="0 0 35 35" fill="none" xmlns="http://www.w3.org/2000/svg">
<path d="M18.2896 27.0139L18.108 26.548L18.2896 27.0139ZM16.3657 28.1426L16.8644 28.1061L16.3657 28.1426ZM20.3298 9.0607L20.6116 8.64768L20.3298 9.0607ZM30.125 18.9583C30.125 13.5966 25.7784 9.25 20.4167 9.25V8.25C26.3307 8.25 31.125 13.0443 31.125 18.9583H30.125ZM20.4167 28.6667C25.7784 28.6667 30.125 24.3201 30.125 18.9583H31.125C31.125 24.8724 26.3307 29.6667 20.4167 29.6667V28.6667ZM18.2359 28.4209C18.9364 28.5816 19.6663 28.6667 20.4167 28.6667V29.6667C19.5905 29.6667 18.7856 29.573 18.0122 29.3955L18.2359 28.4209ZM18.108 26.548C21.728 25.1369 24.2917 21.6168 24.2917 17.4992H25.2917C25.2917 22.0426 22.4623 25.924 18.4712 27.4798L18.108 26.548ZM24.2917 17.4992C24.2917 14.1646 22.6109 11.2224 20.048 9.47372L20.6116 8.64768C23.4359 10.5747 25.2917 13.8202 25.2917 17.4992H24.2917ZM18.0122 29.3955C17.4519 29.267 16.9761 29.1591 16.6427 29.0309C16.3392 28.9142 15.9043 28.6879 15.867 28.1791L16.8644 28.1061C16.8541 27.9657 16.7212 27.9897 17.0016 28.0975C17.2521 28.1938 17.642 28.2846 18.2359 28.4209L18.0122 29.3955ZM18.4712 27.4798C17.8071 27.7387 17.3547 27.916 17.0664 28.0708C16.9221 28.1483 16.86 28.1993 16.8385 28.2224C16.828 28.2337 16.8704 28.1882 16.8644 28.1061L15.867 28.1791C15.8476 27.9129 15.9611 27.6977 16.1056 27.542C16.2392 27.3982 16.4158 27.2851 16.5933 27.1898C16.9486 26.999 17.4716 26.7961 18.108 26.548L18.4712 27.4798ZM20.4167 9.25C20.5872 9.25 20.7081 9.12513 20.7417 9.00259C20.7739 8.88521 20.738 8.73392 20.6116 8.64768L20.048 9.47372C19.7844 9.2939 19.7089 8.98725 19.7774 8.73792C19.8472 8.48343 20.0801 8.25 20.4167 8.25V9.25Z" fill="#FA9600"/>
<path d="M7.4 11.2L7.4 11.2C7.50137 11.5041 7.55206 11.6562 7.60276 11.7225C7.80288 11.9843 8.19712 11.9843 8.39724 11.7225C8.44794 11.6562 8.49863 11.5041 8.6 11.2L8.6 11.2C8.68177 10.9547 8.72266 10.832 8.77555 10.721C8.97291 10.3067 9.30672 9.97291 9.72099 9.77555C9.83201 9.72266 9.95468 9.68177 10.2 9.6L10.2 9.6C10.5041 9.49863 10.6562 9.44794 10.7225 9.39724C10.9843 9.19712 10.9843 8.80288 10.7225 8.60276C10.6562 8.55206 10.5041 8.50137 10.2 8.4L10.2 8.4C9.95468 8.31822 9.83201 8.27734 9.72099 8.22445C9.30672 8.02709 8.97291 7.69329 8.77555 7.27901C8.72266 7.16799 8.68177 7.04532 8.6 6.8C8.49863 6.49588 8.44794 6.34382 8.39724 6.2775C8.19712 6.01569 7.80288 6.01569 7.60276 6.2775C7.55206 6.34382 7.50137 6.49588 7.4 6.8C7.31823 7.04532 7.27734 7.16799 7.22445 7.27901C7.02709 7.69329 6.69329 8.02709 6.27901 8.22445C6.16799 8.27734 6.04532 8.31823 5.8 8.4C5.49588 8.50137 5.34382 8.55206 5.2775 8.60276C5.01569 8.80288 5.01569 9.19712 5.2775 9.39724C5.34382 9.44794 5.49588 9.49863 5.8 9.6C6.04532 9.68177 6.16799 9.72266 6.27901 9.77555C6.69329 9.97291 7.02709 10.3067 7.22445 10.721C7.27734 10.832 7.31822 10.9547 7.4 11.2Z" stroke="#FA9600"/>
</svg>
