<svg width="130" height="130" viewBox="0 0 200 183" fill="none" xmlns="http://www.w3.org/2000/svg">
<path d="M131.963 43.5522C131.81 44.6564 131.656 45.7607 131.442 46.865C130.767 50.362 129.601 53.7362 127.975 56.8957C126.135 60.4233 123.773 63.5215 120.736 66.1595C118.558 68.0307 116.104 69.5337 113.436 70.6687C110.521 71.9264 107.454 72.6319 104.294 73.0307H104.08L103.957 72.908V72.816L104.264 72.5706C105.245 71.8957 106.196 71.2515 107.147 70.6074C108.129 69.9325 109.08 69.1963 109.969 68.3681C111.503 66.9264 112.761 65.2393 113.773 63.3988C114.755 61.6196 115.552 59.7791 116.227 57.908C116.595 56.865 116.994 55.7914 117.362 54.7485C117.791 53.5522 118.558 52.5399 119.356 51.5583C121.626 48.7362 124.386 46.4663 127.546 44.6564C128.558 44.0736 129.601 43.5522 130.675 43.0614L131.411 42.7546L131.902 43.0614V43.5522H131.963Z" fill="#05A88F"/>
<path d="M55.2454 43.5522C55.3988 44.6564 55.5522 45.7607 55.7669 46.865C56.4417 50.362 57.6074 53.7362 59.2332 56.8957C61.0736 60.4233 63.4356 63.5215 66.4724 66.1595C68.6503 68.0307 71.1043 69.5337 73.773 70.6687C76.6871 71.9264 79.7546 72.6319 82.9141 73.0307H83.1289L83.2516 72.908V72.816L82.9448 72.5706C81.9632 71.8957 81.0123 71.2515 80.0614 70.6074C79.0491 69.9325 78.1289 69.1963 77.2393 68.3681C75.7055 66.9264 74.4479 65.2393 73.4663 63.3988C72.4847 61.6196 71.6871 59.7791 71.0123 57.908C70.6442 56.865 70.2454 55.7914 69.8773 54.7485C69.4479 53.5522 68.681 52.5399 67.8835 51.5583C65.6135 48.7362 62.8528 46.4663 59.6933 44.6564C58.681 44.0736 57.6381 43.5522 56.5644 43.0614L55.8282 42.7546L55.3374 43.0614V43.5522H55.2454Z" fill="#05A88F"/>
<path d="M73.6503 37.0797L74.3252 37.3558C75.0614 37.8159 75.7975 38.2761 76.5031 38.7669C78.5276 40.2086 80.4908 41.773 82.362 43.4294L83.4969 44.3804C83.8037 44.6564 83.8957 44.9632 83.7423 45.362L83.589 45.8221C82.454 48.7055 81.7178 51.7116 81.3497 54.7791C81.227 55.73 81.1043 56.681 81.135 57.6319C81.1963 61.0061 81.6871 64.2883 83.3129 67.3558C84.3252 69.2577 85.6135 70.9141 87.362 72.2024L87.8221 72.6012V72.7546L87.7301 72.7853L87.4233 72.7546C84.8773 72.0184 82.5767 70.8221 80.5828 69.1043C77.9755 66.8343 76.0736 64.0736 74.7853 60.9141C73.681 58.2454 73.0061 55.4847 72.5767 52.6626C72.1472 49.8405 72.1166 47.0491 72.2393 44.227C72.3313 42.1104 72.638 39.9939 73.0982 37.908L73.3129 37.2331L73.6503 37.0797Z" fill="#05A88F"/>
<path d="M115.429 44.2883C115.337 42.1718 115.031 40.0552 114.571 37.9387L114.356 37.2945L113.988 37.1104L113.528 37.2638C112.883 37.6319 112.239 38.0307 111.626 38.4601C109.417 40.0245 107.301 41.7117 105.276 43.4908L104.141 44.4417C103.834 44.7178 103.742 45.0245 103.896 45.4233L104.049 45.8834C105.184 48.7669 105.92 51.773 106.288 54.8405C106.411 55.7914 108.282 64.5644 101.411 69.0123C100.061 69.9018 97.3926 70.638 94.7239 70.1166C93.3435 69.8405 92.0552 69.135 91.0736 68.1227C90.2761 67.2945 89.6932 66.2822 89.4785 65.0552C89.1411 63.3068 89.3865 61.6503 90.4908 60.1779C91.0736 59.4111 91.8098 58.8282 92.7607 58.6442C94.5092 58.2454 96.135 58.5828 97.4233 59.8712C98.8957 61.3129 99.1718 63.7055 98.1902 65.3313C97.3006 66.7423 95.6748 67.816 93.0675 67.4479L92.4846 67.3865L92.6073 67.6319C94.3251 69.0736 96.2883 69.135 98.2822 68.4601C110.798 62.2025 99.3251 40.454 94.4478 33.9202L94.1104 33.5828H93.7423L93.3435 34.0429C92.7607 34.8405 83.8957 47.816 83.8957 59.8712C83.8957 60.9755 83.9877 62.0491 84.1411 63.1227C84.3251 64.3804 84.6012 65.638 85.2147 66.8037C86.3803 69.0736 88.1288 70.7914 90.4294 71.9877C93.2208 73.4295 101.043 74.5031 107.086 69.227C109.54 67.0491 111.564 64.1963 112.883 61.0368C113.988 58.3681 114.663 55.6074 115.092 52.7853C115.491 49.9018 115.552 47.1104 115.429 44.2883Z" fill="#05A88F"/>
<path d="M17.8834 80.638C14.0184 80.8528 10.1227 81.0675 6.22699 81.2515C6.22699 81.2515 6.71779 78.3681 6.22699 77.7546C15.7669 78.2761 25 78.2761 34.5092 77.7546C34.0184 78.3988 34.5092 81.2515 34.5092 81.2515C30.6442 81.0368 26.7485 80.8221 22.8528 80.638L22.6074 80.6074L22.8528 115.117C22.454 114.933 18.2822 114.933 17.8834 115.117C17.9448 103.614 18.0368 92.1104 18.1288 80.6074L17.8834 80.638Z" fill="#2A328B"/>
<path d="M39.1104 112.785C39.1104 112.785 36.2883 112.54 35.5521 112.785L50.6135 79.6564H51.5951L66.0736 112.724C66.0736 112.724 61.7484 112.479 61.1043 112.785L55.9816 100.362C55.9816 100.362 45.2454 100.086 43.8037 100.331L39.1104 112.785ZM44.7239 98.0613H55.276L50 86.2515L44.7239 98.0613Z" fill="#2A328B"/>
<path d="M126.258 80.0245C126.258 80.0245 129.816 80.546 131.288 79.9939L142.393 107.939L153.405 79.9632C153.405 79.9632 155.706 80.362 156.902 80.0245L142.975 112.448H139.908L126.258 80.0245Z" fill="#2A328B"/>
<path d="M159.479 115.025C159.479 115.025 156.35 114.779 155.521 115.025L172.761 77.1104H173.834L190.245 115.055C190.245 115.055 185.429 114.81 184.724 115.117L178.957 100.791L164.939 100.761L159.479 115.025ZM166.012 98.2761L178.16 98.184L172.086 84.411L166.012 98.2761Z" fill="#2A328B"/>
<path d="M84.2024 122.509L85.0307 121.834C85.0307 121.834 84.5399 120.761 82.4233 120.086C80.3067 119.411 76.6257 119.748 75.7669 121.436C74.908 123.092 75.6135 124.994 79.1411 125.178C81.6257 125.301 83.4049 125.73 83.957 126.589C84.4478 127.356 84.0184 128.215 83.2208 128.552C81.2576 129.38 76.6257 128.798 76.0429 127.11L75.1227 127.847C75.1227 127.847 76.5337 129.626 78.4969 129.933C80.4601 130.209 82.4846 129.963 83.6196 129.472C84.7546 128.982 86.0736 127.325 85 125.699C83.9264 124.074 80.092 124.196 78.9264 124.074C78.0981 123.982 76.9632 123.613 76.7484 122.785C76.4417 121.589 77.8527 120.975 78.8343 120.761C81.0429 120.362 83.5583 121.528 84.2024 122.509Z" fill="#05A88F"/>
<path d="M98.9264 120.117C96.1349 120.086 92.3619 120.117 92.3619 120.117C92.3926 123.337 92.3619 126.589 92.3619 129.81H92.3926H93.5889V125.699H98.8957C98.8957 125.699 101.81 125.546 101.963 123.552C102.117 121.528 101.687 120.117 98.9264 120.117ZM100.859 122.663C100.89 123.583 100.153 124.503 98.6503 124.595H94.6626H93.5276C93.5276 123.429 93.5276 122.233 93.5276 121.067C93.5276 121.067 96.3803 121.067 98.4969 121.067C100.307 121.098 100.828 121.865 100.859 122.663Z" fill="#05A88F"/>
<path d="M106.166 129.81L111.411 120.055H112.853L117.945 129.81H116.534L115.245 127.356H108.926L107.669 129.81H106.166ZM109.54 126.282L114.755 126.252L112.147 121.129L109.54 126.282Z" fill="#05A88F"/>
<path d="M78.0675 82.2024C74.6319 82.3865 71.1963 82.5706 67.73 82.7546C67.73 82.7546 68.1595 80.1779 67.73 79.6258C76.1963 80.1166 84.3865 80.0859 92.8221 79.6258C92.3926 80.1779 92.8221 82.7546 92.8221 82.7546C89.3558 82.5706 85.9202 82.3865 82.4846 82.2024L82.2699 82.1718L82.4846 112.785H78.0981C78.1595 102.601 78.2208 92.3865 78.3129 82.1718L78.0675 82.2024Z" fill="#2A328B"/>
<path d="M105.276 82.2024C101.841 82.3865 98.4049 82.5706 94.9387 82.7546C94.9387 82.7546 95.3681 80.1779 94.9387 79.6258C103.405 80.1166 111.595 80.0859 120.031 79.6258C119.601 80.1779 120.031 82.7546 120.031 82.7546C116.564 82.5706 113.129 82.3865 109.693 82.2024L109.479 82.1718L109.693 112.785H105.307C105.368 102.601 105.429 92.3865 105.521 82.1718L105.276 82.2024Z" fill="#2A328B"/>
</svg>
